<svg xmlns="http://www.w3.org/2000/svg" viewBox="0 0 48 48" fill="none" aria-label="QuiverDM">
  <!-- Shield body -->
  <path d="M24 3L42 10.5V26C42 36 24 45 24 45C24 45 6 36 6 26V10.5L24 3Z" fill="hsl(240,10%,11%)" stroke="hsl(35,70%,48%)" stroke-width="1.4" stroke-linejoin="round"/>
  <!-- Inner shield bevel -->
  <path d="M24 7L38 13.5V26C38 33.5 24 41 24 41C24 41 10 33.5 10 26V13.5L24 7Z" fill="none" stroke="hsl(35,35%,22%)" stroke-width="0.6"/>
  <!-- Quiver body (tall rounded rectangle) -->
  <rect x="20" y="17" width="8" height="16" rx="4" fill="hsl(240,10%,8%)" stroke="hsl(35,60%,48%)" stroke-width="1.1"/>
  <!-- Arrow shafts -->
  <line x1="22" y1="17" x2="22" y2="10" stroke="hsl(35,80%,62%)" stroke-width="1.2" stroke-linecap="round"/>
  <line x1="24" y1="17" x2="24" y2="7" stroke="hsl(35,80%,62%)" stroke-width="1.2" stroke-linecap="round"/>
  <line x1="26" y1="17" x2="26" y2="10" stroke="hsl(35,80%,62%)" stroke-width="1.2" stroke-linecap="round"/>
  <!-- Arrow tips -->
  <polygon points="22,10 20.5,13.5 23.5,13.5" fill="hsl(35,80%,55%)"/>
  <polygon points="24,7 22.5,10.5 25.5,10.5" fill="hsl(35,80%,55%)"/>
  <polygon points="26,10 24.5,13.5 27.5,13.5" fill="hsl(35,80%,55%)"/>
</svg>
